<?xml version="1.0" encoding="iso-8859-1"?>
<!-- Generator: Adobe Illustrator 16.0.0, SVG Export Plug-In . SVG Version: 6.00 Build 0)  -->
<!DOCTYPE svg PUBLIC "-//W3C//DTD SVG 1.1//EN" "http://www.w3.org/Graphics/SVG/1.1/DTD/svg11.dtd">
<svg version="1.1" id="Capa_1" xmlns="http://www.w3.org/2000/svg" xmlns:xlink="http://www.w3.org/1999/xlink" x="0px" y="0px"
	 width="325.528px" height="325.528px" viewBox="0 0 325.528 325.528" style="enable-background:new 0 0 325.528 325.528;"
	 xml:space="preserve">
<g>
	<path fill="#ffffff" d="M313.443,31.208c0.704-0.282,1.521-1.077,1.76-1.794c1.585-4.767,0.487-10.222-3.303-14.012c0,0-0.177-0.181-0.404-0.409
		c-0.228-0.223-0.445,0.207-0.569,0.952c-0.384,2.418-1.274,4.536-2.196,5.453c-2.102,2.1-6.979,0.613-10.904-3.314
		c-3.931-3.93-5.406-8.813-3.314-10.907c0.917-0.917,3.034-1.808,5.447-2.196c0.751-0.122,1.181-0.344,0.958-0.567l-0.403-0.409
		c-3.775-3.775-9.202-4.878-13.955-3.324c-0.726,0.233-1.518,1.056-1.803,1.761c-0.839,2.1-1.595,4.158-2.04,5.792
		c-0.228,0.8-0.564,1.872-1.035,3.079l-2.3-2.305c0.824-0.93,1.212-1.781,0.119-2.874c-1.631-1.628-4.271-1.628-5.897,0
		c-1.626,1.626-1.626,4.267,0,5.896c1.093,1.093,1.947,0.704,2.874-0.122l3.392,3.389c-1.186,2.211-2.78,4.575-4.878,6.775
		l-3.365-3.366c0.828-0.929,1.211-1.784,0.124-2.874c-1.626-1.629-4.267-1.629-5.898,0c-1.631,1.626-1.631,4.267,0,5.895
		c1.093,1.092,1.947,0.704,2.874-0.122l3.211,3.208c-2.123,1.639-4.63,3.052-7.581,4.067l-3.392-3.39
		c0.823-0.929,1.217-1.781,0.119-2.874c-1.626-1.628-4.267-1.628-5.893,0s-1.626,4.269,0,5.895c1.087,1.093,1.946,0.707,2.873-0.121
		l1.637,1.639c-0.72,0.122-1.435,0.249-2.19,0.323c-0.756,0.075-1.154,0.679-0.932,1.406c2.413,7.793-0.311,12.704-2.692,15.301
		c-0.528-0.303-1.182-0.319-1.627,0.126l-0.869,0.87c-0.539,0.536-0.539,1.406,0,1.942l0.362,0.365L144.098,158.013
		c-1.033-0.036-2.115-0.057-3.334-0.031c-5.297,0.111-6.941,0.238-11.729-8.854c-4.79-9.093,4.306-30.631,0.476-48.824
		c-3.829-18.186-6.941-3.589-25.611,39.009c-18.669,42.601-65.809,45.547-65.809,45.547l0.039,0.072
		c-3.798,0.177-7.451,1.01-10.817,2.725c-21.036,10.666-24.011,48.27-5.145,85.454c18.867,37.189,50.14,61.495,72.792,49.197
		c3.987-2.164,7.244-5.38,9.8-9.409l0.01,0.016c6.851-8.528,12.774-26.895,19.959-48.917c7.185-22.018,16.749-26.802,28-31.354
		c11.247-4.547,19.144-10.051,24.653-18.424c5.499-8.378,3.106-16.037-3.594-11.247s-19.861,11.247-28.239,2.874
		c-6.219-6.22-1.888-17.171,0.758-22.406L265.571,64.177l0.368,0.365c0.533,0.536,1.402,0.536,1.937,0l0.869-0.87
		c0.436-0.432,0.425-1.064,0.15-1.584c2.595-2.385,7.503-5.116,15.302-2.708c0.725,0.223,1.33-0.176,1.408-0.93
		c0.072-0.769,0.207-1.479,0.321-2.201l1.626,1.624c-0.829,0.927-1.217,1.781-0.125,2.874c1.626,1.628,4.268,1.628,5.893,0
		c1.632-1.629,1.632-4.27,0-5.896c-1.087-1.093-1.946-0.707-2.868,0.122l-3.376-3.374c1.015-2.959,2.429-5.46,4.07-7.581
		l3.184,3.188c-0.828,0.927-1.217,1.781-0.119,2.874c1.627,1.626,4.268,1.626,5.894,0c1.626-1.629,1.626-4.27,0-5.898
		c-1.093-1.092-1.947-0.704-2.874,0.122l-3.351-3.351c2.195-2.094,4.567-3.689,6.773-4.872l3.376,3.371
		c-0.828,0.929-1.212,1.781-0.124,2.874c1.626,1.628,4.267,1.628,5.897,0s1.631-4.267,0-5.895c-1.093-1.093-1.947-0.705-2.874,0.121
		l-2.288-2.286c1.211-0.466,2.283-0.805,3.086-1.027C309.332,32.782,311.361,32.039,313.443,31.208z"/>
</g>
<g>
</g>
<g>
</g>
<g>
</g>
<g>
</g>
<g>
</g>
<g>
</g>
<g>
</g>
<g>
</g>
<g>
</g>
<g>
</g>
<g>
</g>
<g>
</g>
<g>
</g>
<g>
</g>
<g>
</g>
</svg>
